PathFileType	4	(X/Y/Z)	C:\Users\Basilio\Documents\Thesis Gigler\squatting_fais\c3dfiles\019\SLS_front_pre4\markers_experimental.trc
DataRate	CameraRate	NumFrames	NumMarkers	Units	OrigDataRate	OrigDataStartFrame	OrigNumFrames
200.000000	200.000000	4	59	mm	200.000000	1170	1561
Frame#	Time	LBHD			RBHD			C7			T10			CLAV			LSHO			LUUPA			LMUPA			LDUPA			LLEP			LMEP			LRAD			LUL			LRFIN			RSHO			RUPA1			RMUPA			RDUPA			RLEP			RMEP			RRAD			RUL			RUFIN			LASI			RASI			USACR			LSACR			RSACR			LTHI1			LTHI2			LTHI3			LTHI4			LLFC			LTIB1			LTIB2			LTIB3			LTIB4			LLMAL			LMMAL			LHEE			LMT1			LMT2			LMT5			RTHI			RTHI2			RTHI3			RTHI4			RLFC			RTIB1			RTIB2			RTIB3			RTIB4			RLMAL			RMMAL			RHEE			RMT1			RMT2			RMT5			FHD			
		X1	Y1	Z1	X2	Y2	Z2	X3	Y3	Z3	X4	Y4	Z4	X5	Y5	Z5	X6	Y6	Z6	X7	Y7	Z7	X8	Y8	Z8	X9	Y9	Z9	X10	Y10	Z10	X11	Y11	Z11	X12	Y12	Z12	X13	Y13	Z13	X14	Y14	Z14	X15	Y15	Z15	X16	Y16	Z16	X17	Y17	Z17	X18	Y18	Z18	X19	Y19	Z19	X20	Y20	Z20	X21	Y21	Z21	X22	Y22	Z22	X23	Y23	Z23	X24	Y24	Z24	X25	Y25	Z25	X26	Y26	Z26	X27	Y27	Z27	X28	Y28	Z28	X29	Y29	Z29	X30	Y30	Z30	X31	Y31	Z31	X32	Y32	Z32	X33	Y33	Z33	X34	Y34	Z34	X35	Y35	Z35	X36	Y36	Z36	X37	Y37	Z37	X38	Y38	Z38	X39	Y39	Z39	X40	Y40	Z40	X41	Y41	Z41	X42	Y42	Z42	X43	Y43	Z43	X44	Y44	Z44	X45	Y45	Z45	X46	Y46	Z46	X47	Y47	Z47	X48	Y48	Z48	X49	Y49	Z49	X50	Y50	Z50	X51	Y51	Z51	X52	Y52	Z52	X53	Y53	Z53	X54	Y54	Z54	X55	Y55	Z55	X56	Y56	Z56	X57	Y57	Z57	X58	Y58	Z58	X59	Y59	Z59	

1171	5.850000000000001	-376.4247436523438	1599.053344726563	-794.3462524414065	-382.7868652343751	1592.909423828125	-654.7991943359376	-417.1124877929689	1443.968627929688	-712.6583862304689	-523.8663330078126	1172.529296875	-708.5148925781251	nan	nan	nan	-337.0928649902344	1456.25390625	-833.455017089844	-215.7364807128907	1437.227416992188	-885.430114746094	-188.1297607421875	1422.212158203125	-841.7656860351565	-149.6372528076172	1433.364501953125	-883.755065917969	-77.7648162841797	1412.441040039063	-918.4908447265627	-80.17700195312501	1352.88525390625	-916.7905273437502	173.0846710205078	1393.156127929688	-835.6741943359377	169.7986297607422	1409.31298828125	-901.587829589844	245.4176940917969	1403.35205078125	-833.3969726562502	-331.5792846679688	1447.490478515625	-607.1859130859376	-216.2012023925782	1388.431518554688	-502.9129943847657	-190.5458374023438	1416.23779296875	-536.2977905273439	-146.9019622802735	1381.313598632813	-505.2232971191407	-70.21986389160158	1381.629028320313	-516.6895141601564	-80.01812744140626	1322.806518554688	-530.6459960937501	163.8855895996094	1399.193115234375	-604.7180786132814	178.5257110595703	1399.819213867188	-539.4019165039064	250.6518554687501	1417.752563476563	-606.2955932617189	-426.1041259765626	967.364196777344	-830.1914672851565	-412.8502197265626	934.5117797851565	-627.4834594726564	-565.0450439453126	1032.916625976563	-710.9439697265626	-577.7999877929689	1003.856750488281	-740.8208007812501	-570.6975708007814	1000.018859863281	-683.8860473632814	-337.6082458496094	807.2993774414065	-927.9639282226565	-252.2934112548829	802.8784179687502	-923.9810180664065	-232.8699035644532	841.178649902344	-902.8879394531252	-217.7794647216797	751.8881835937501	-920.126647949219	-145.2386474609375	691.4718017578126	-903.5759277343752	-41.97361755371094	586.2258911132814	-876.3350219726565	-82.67189788818361	525.4216918945314	-926.8521728515627	-46.24608230590821	535.4193725585939	-904.932556152344	-20.28814125061036	459.1252746582032	-870.5175781250002	-43.61510467529298	316.4728393554688	-893.671325683594	-23.08472633361817	330.1606445312501	-812.3770141601565	-105.5625762939453	284.0952148437501	-839.8868408203127	109.3033599853516	266.8788146972657	-821.954040527344	112.5279006958008	261.3759765625001	-861.4627685546877	68.74192810058595	230.0612335205079	-908.2956542968752	-406.4100341796876	741.4633178710939	-561.7739868164064	-347.6433715820313	714.4182128906251	-577.3680419921876	-326.8555297851563	735.3638916015626	-595.8265991210939	-328.5179443359376	636.3562622070314	-581.0906982421876	-290.2182617187501	488.3237609863282	-628.7216186523439	-267.9823303222657	316.6017456054688	-708.0855712890626	-330.2825317382813	239.5240783691407	-657.3161621093751	-299.1925048828126	236.5450439453126	-692.7619628906251	-318.0995483398438	202.3578033447266	-737.2194824218751	-388.5102539062501	124.5071563720703	-696.9197387695314	-374.4967651367188	133.2368774414063	-773.7864379882815	-454.7597961425782	104.935531616211	-750.9572143554689	-256.9622192382813	55.62294387817384	-774.9049072265627	-249.0740509033204	55.65762329101564	-732.3662719726564	-292.4748535156251	50.65140914916994	-675.0191040039064	-250.6733398437501	1629.916381835938	-648.8835449218751	
1172	5.855	-377.5290222167969	1601.924072265625	-794.3953857421877	-383.7468872070313	1595.66015625	-654.7000732421876	-418.1182556152345	1446.518432617188	-712.6295776367189	-523.7015380859376	1174.697631835938	-708.4277343750001	nan	nan	nan	-337.9251403808594	1458.942626953125	-833.442565917969	-216.526840209961	1439.645385742188	-885.6311035156252	-188.8197479248047	1424.787719726563	-841.9219970703127	-150.4657592773438	1435.722412109375	-883.9993286132815	-78.54309082031251	1414.465576171875	-918.595397949219	-81.15608978271486	1355.063232421875	-916.6425781250002	171.8143463134766	1396.601196289063	-836.1943969726565	167.8418273925782	1410.907104492188	-902.1804199218752	244.4767150878907	1405.510131835938	-833.9259033203127	-332.5315856933594	1450.292236328125	-607.0108642578126	-216.945053100586	1391.035522460938	-503.1172485351564	-191.0350341796875	1418.640625	-536.1107788085939	-147.5502471923828	1383.769409179688	-505.2813110351564	-70.89785003662111	1383.941162109375	-516.8203735351564	-80.79357147216798	1325.006469726563	-531.2473754882814	163.5478973388672	1401.709106445313	-604.9926147460939	177.9450378417969	1401.899047851563	-539.2348022460939	249.9196319580079	1420.103637695313	-606.1213989257814	-425.2752685546876	969.6335449218752	-830.1401977539065	-411.9327087402345	936.7204589843752	-627.4849243164064	-564.2089843750001	1035.068725585938	-710.8383178710939	-577.4278564453126	1006.004333496094	-740.7468261718751	-569.9157104492189	1002.073974609375	-683.8660278320314	-336.7562255859376	809.0843505859377	-927.8218994140627	-251.2927398681641	804.4710693359377	-923.8950195312502	-232.0870361328126	842.9219970703127	-902.8389892578127	-217.194076538086	753.6023559570314	-920.0945434570315	-144.5320739746094	693.0815429687501	-903.473815917969	-41.76219558715821	587.4243164062501	-876.3931884765627	-82.88890075683595	526.8185424804689	-926.8076171875002	-46.16923141479493	536.5009155273439	-905.0032958984377	-20.61359405517578	460.3138732910157	-870.441833496094	-44.39340972900391	317.5932617187501	-893.4755859375002	-23.66906166076661	331.2374877929688	-812.4549560546877	-105.9937744140625	285.4092407226563	-839.7280883789065	107.8400802612305	267.7191162109376	-821.7674560546877	111.4948272705078	262.1765747070313	-861.2374267578127	67.10147094726564	230.8799438476563	-907.6890258789065	-406.2934875488282	743.0639038085939	-561.3788452148439	-347.5589294433594	715.5695800781251	-577.4108886718751	-326.5505981445313	736.6191406250001	-595.8640136718751	-329.3579711914063	637.5917968750001	-581.1821289062501	-292.0848999023438	488.9874572753907	-628.5969848632814	-269.1785278320313	317.1621093750001	-707.9936523437501	-331.0325012207032	239.7225494384766	-657.1743164062501	-300.0474243164063	237.0219116210938	-692.6223144531251	-318.6870117187501	202.6735382080079	-737.2309570312501	-388.6030273437501	124.4535598754883	-696.8740844726564	-374.5876464843751	133.2430419921875	-773.7807617187502	-454.9227905273439	104.6612625122071	-750.9776000976564	-256.9337463378907	55.62094497680665	-774.8725585937502	-249.1079559326172	55.66224670410158	-732.4575195312501	-292.4877929687501	50.66565322875978	-675.0033569335939	-251.6838684082032	1632.789916992188	-648.8084716796876	
1173	5.86	-378.9515686035157	1604.848876953125	-794.2820434570315	-384.7825012207032	1598.631958007813	-654.4468994140626	-418.7779846191407	1449.10107421875	-712.6239624023439	-523.5282592773439	1176.81494140625	-708.3892211914064	nan	nan	nan	-338.3128662109376	1461.4697265625	-833.387634277344	-217.2811279296876	1442.101806640625	-885.834411621094	-189.4953918457032	1427.340942382813	-842.0527954101565	-151.2840270996094	1438.1337890625	-884.328796386719	-79.38806152343751	1416.560302734375	-918.7654418945315	-82.08542633056642	1357.048461914063	-916.5733642578127	171.0489807128907	1397.4384765625	-835.9130859375002	167.1359100341797	1412.86767578125	-901.851745605469	243.4973907470704	1407.0390625	-833.5594482421877	-333.1476135253907	1453.03076171875	-607.0030517578126	-217.6633453369141	1393.329223632813	-503.0547180175782	-192.3173065185547	1421.281372070313	-536.6669921875001	-148.2097625732422	1386.16650390625	-505.5108337402345	-71.61617279052736	1386.3173828125	-516.9044189453126	-81.69612884521486	1327.277954101563	-531.6528930664064	162.7226104736328	1404.140014648438	-604.5917968750001	177.2113647460938	1404.022094726563	-539.2576293945314	249.4759368896485	1422.328002929688	-605.8173217773439	-424.5812072753907	971.9371337890627	-830.183532714844	-411.0263671875001	938.9673461914065	-627.4791259765626	-563.9091796875001	1037.078491210938	-710.7121582031251	-576.5363159179689	1008.202331542969	-740.5905151367189	-568.8396606445314	1003.993469238281	-683.7963867187501	-336.0710754394532	811.2076416015627	-927.7806396484377	-250.8361511230469	806.4155273437502	-923.8052978515627	-231.3563842773438	844.7532348632815	-902.8291015625002	-216.6721191406251	755.3853759765626	-920.0881347656252	-144.1775817871094	694.6518554687501	-903.483825683594	-41.82212829589844	588.7927246093751	-876.3703613281252	-83.14358520507814	528.2169189453126	-926.7603149414065	-46.08207702636719	537.6289062500001	-904.9404296875002	-21.02173614501953	461.5658569335939	-870.372253417969	-45.46200561523438	319.0530700683594	-893.4234008789065	-24.59267234802247	332.6313476562501	-812.2015380859377	-106.9341583251953	286.9304504394532	-839.435485839844	106.9580841064453	268.5227661132813	-821.7420043945315	110.8056030273438	262.8377990722657	-861.2995605468752	65.8033905029297	231.8330993652344	-907.5527954101565	-405.9840698242189	744.8830566406251	-561.2882690429689	-347.5952758789063	716.8739624023439	-577.4768676757814	-326.1602172851563	737.7284545898439	-595.7720336914064	-330.1175842285157	638.6318359375001	-581.2366333007814	-294.2162475585938	489.6559448242189	-628.5596313476564	-270.4419250488282	317.8809509277344	-707.8890380859376	-331.8734741210938	239.9352111816407	-657.0225219726564	-300.9627075195313	237.4650268554688	-692.5449829101564	-319.1642761230469	202.9657135009766	-737.0908203125001	-388.7218627929689	124.4423217773438	-696.8927001953126	-374.7703857421876	133.2688446044922	-773.776062011719	-454.6773681640626	104.8403091430664	-751.0625000000001	-257.3340454101563	55.9804153442383	-775.0043945312502	-249.1565704345704	55.65637207031251	-732.5342407226564	-292.4926147460938	50.6691131591797	-674.9965209960939	-252.7308959960938	1635.810668945313	-648.8660888671876	
1174	5.865	-380.1515502929688	1607.748657226563	-794.0379028320315	-385.7941894531251	1601.444091796875	-654.2864379882814	-419.6062011718751	1451.689208984375	-712.4946289062501	-523.2630004882814	1178.897216796875	-708.2650756835939	nan	nan	nan	-340.4710693359376	1464.446044921875	-834.269714355469	-218.0960693359376	1444.533081054688	-886.1043090820315	-190.2167510986328	1429.913940429688	-842.184265136719	-152.2822875976563	1440.254516601563	-884.3239746093752	-80.18725585937501	1418.546142578125	-918.9212036132815	-82.89083862304689	1359.157470703125	-916.4226684570315	170.4870758056641	1398.651245117188	-836.192321777344	166.6692810058594	1414.394287109375	-902.455505371094	242.5186004638672	1409.036499023438	-833.8486938476565	-334.0731201171876	1455.277709960938	-606.6784057617189	-218.2755737304688	1395.908203125	-503.272918701172	-192.3200988769532	1423.719360351563	-536.3794555664064	-148.8325958251953	1388.418701171875	-505.518280029297	-72.45133209228517	1388.836059570313	-517.1001586914064	-82.43138122558595	1329.654174804688	-532.3813476562501	163.1414031982422	1406.904174804688	-604.6297607421876	176.5261993408203	1406.244506835938	-539.2316894531251	248.3780212402344	1425.030639648438	-605.7542114257814	-423.845184326172	974.188903808594	-830.2185668945315	-410.0136718750001	941.1380615234377	-627.4575805664064	-562.9854736328126	1039.229736328125	-710.6510620117189	-575.7198486328126	1010.174438476563	-740.5434570312501	-568.4005737304689	1006.19873046875	-683.7374267578126	-335.2677307128907	813.0318603515627	-927.6895141601565	-249.855209350586	808.1019287109377	-923.718200683594	-230.5962677001954	846.4875488281252	-902.808044433594	-215.9987030029297	757.1568603515626	-920.0364990234377	-143.7204895019532	696.2830810546876	-903.5225830078127	-41.68791961669923	590.0654296875001	-876.4290771484377	-83.24572753906251	529.5453491210939	-926.6855468750002	-46.45697784423829	539.0438232421876	-904.884704589844	-21.43097877502442	462.8937988281251	-870.2370605468752	-46.20960998535157	320.2318420410157	-893.2578735351565	-25.19754791259766	333.8422241210938	-812.0249633789065	-108.2917556762696	288.6010742187501	-838.9317626953127	106.0456085205078	269.3966064453126	-821.7348632812502	109.5170669555664	263.5451660156251	-861.246765136719	65.09170532226564	232.5835571289063	-907.766296386719	-405.505096435547	746.5715942382814	-561.1368408203126	-347.5553894042969	718.0040283203126	-577.5194091796876	-325.4011230468751	738.9104614257814	-595.6317749023439	-330.8153381347657	639.7625732421876	-581.2140502929689	-295.9137878417969	490.1044921875001	-628.4168701171876	-271.5298767089844	318.3801879882813	-707.8602905273439	-332.7412414550782	240.2765502929688	-657.0979614257814	-301.6271667480469	237.8049468994141	-692.5267333984376	-319.6400756835938	203.2737579345704	-736.8568725585939	-388.9114990234376	124.4129409790039	-696.9229736328126	-374.8228149414063	133.2301330566407	-773.7982177734377	-454.7267456054689	104.6310653686524	-751.0855102539064	-256.8616943359376	55.70465469360353	-774.8640747070315	-249.167709350586	55.70601272583009	-732.5769042968751	-292.4864807128907	50.66230392456056	-675.0129394531251	-253.645004272461	1638.727783203125	-648.7888183593751	
